{
  "accessors": [
    {
      "bufferView": 1,
      "componentType": 5126,
      "count": 65532,
      "max": [
        9.452103614807129,
        5.90389347076416,
        9.199211120605469
      ],
      "min": [
        -2.083233118057251,
        -2.1129021644592285,
        -6.130201816558838
      ],
      "type": "VEC3"
    },
    {
      "bufferView": 1,
      "byteOffset": 786384,
      "componentType": 5126,
      "count": 65532,
      "max": [
        0.9999984502792358,
        1.0,
        0.9999983310699463
      ],
      "min": [
        -0.9999925494194031,
        -0.9999998807907104,
        -0.9999999403953552
      ],
      "type": "VEC3"
    },
    {
      "bufferView": 0,
      "componentType": 5125,
      "count": 263793,
      "type": "SCALAR"
    },
    {
      "bufferView": 1,
      "byteOffset": 1572768,
      "componentType": 5126,
      "count": 65532,
      "max": [
        9.446992874145508,
        6.027237415313721,
        9.241905212402344
      ],
      "min": [
        -2.0135529041290283,
        -2.084279775619507,
        -6.072592258453369
      ],
      "type": "VEC3"
    },
    {
      "bufferView": 1,
      "byteOffset": 2359152,
      "componentType": 5126,
      "count": 65532,
      "max": [
        0.9999879002571106,
        1.0,
        0.9999971389770508
      ],
      "min": [
        -0.9999986290931702,
        -1.0,
        -0.9999998807907104
      ],
      "type": "VEC3"
    },
    {
      "bufferView": 0,
      "byteOffset": 1055172,
      "componentType": 5125,
      "count": 178653,
      "type": "SCALAR"
    },
    {
      "bufferView": 1,
      "byteOffset": 3145536,
      "componentType": 5126,
      "count": 65532,
      "max": [
        9.452103614807129,
        6.027237415313721,
        9.246394157409668
      ],
      "min": [
        -2.0157065391540527,
        -2.0177016258239746,
        -6.124253273010254
      ],
      "type": "VEC3"
    },
    {
      "bufferView": 1,
      "byteOffset": 3931920,
      "componentType": 5126,
      "count": 65532,
      "max": [
        0.9999995231628418,
        0.9999998807907104,
        0.9999978542327881
      ],
      "min": [
        -0.999996542930603,
        -0.9999999403953552,
        -0.9999942779541016
      ],
      "type": "VEC3"
    },
    {
      "bufferView": 0,
      "byteOffset": 1769784,
      "componentType": 5125,
      "count": 114195,
      "type": "SCALAR"
    },
    {
      "bufferView": 1,
      "byteOffset": 4718304,
      "componentType": 5126,
      "count": 15392,
      "max": [
        9.18274974822998,
        6.027237415313721,
        9.246394157409668
      ],
      "min": [
        -2.032855749130249,
        -1.9805028438568115,
        -5.9962358474731445
      ],
      "type": "VEC3"
    },
    {
      "bufferView": 1,
      "byteOffset": 4903008,
      "componentType": 5126,
      "count": 15392,
      "max": [
        0.999982476234436,
        0.9999991655349731,
        0.9999580383300781
      ],
      "min": [
        -0.9999890327453613,
        -0.9999977946281433,
        -0.9999971389770508
      ],
      "type": "VEC3"
    },
    {
      "bufferView": 0,
      "byteOffset": 2226564,
      "componentType": 5125,
      "count": 19374,
      "type": "SCALAR"
    }
  ],
  "asset": {
    "extras": {
      "author": "sourcecode (https://sketchfab.com/sourcecode)",
      "license": "CC-BY-4.0 (http://creativecommons.org/licenses/by/4.0/)",
      "source": "https://sketchfab.com/3d-models/lord-shiva-e49b1fd1b31e498e8897db84bfc1f1ee",
      "title": "LORD SHIVA"
    },
    "generator": "Sketchfab-16.33.0",
    "version": "2.0"
  },
  "bufferViews": [
    {
      "buffer": 0,
      "byteLength": 2304060,
      "name": "floatBufferViews",
      "target": 34963
    },
    {
      "buffer": 0,
      "byteLength": 5087712,
      "byteOffset": 2304060,
      "byteStride": 12,
      "name": "floatBufferViews",
      "target": 34962
    }
  ],
  "buffers": [
    {
      "byteLength": 7391772,
      "uri": "scene.bin"
    }
  ],
  "materials": [
    {
      "doubleSided": true,
      "name": "material_0",
      "pbrMetallicRoughness": {
        "metallicFactor": 0.0,
        "roughnessFactor": 0.6
      }
    }
  ],
  "meshes": [
    {
      "name": "Object_0",
      "primitives": [
        {
          "attributes": {
            "NORMAL": 1,
            "POSITION": 0
          },
          "indices": 2,
          "material": 0,
          "mode": 4
        }
      ]
    },
    {
      "name": "Object_1",
      "primitives": [
        {
          "attributes": {
            "NORMAL": 4,
            "POSITION": 3
          },
          "indices": 5,
          "material": 0,
          "mode": 4
        }
      ]
    },
    {
      "name": "Object_2",
      "primitives": [
        {
          "attributes": {
            "NORMAL": 7,
            "POSITION": 6
          },
          "indices": 8,
          "material": 0,
          "mode": 4
        }
      ]
    },
    {
      "name": "Object_3",
      "primitives": [
        {
          "attributes": {
            "NORMAL": 10,
            "POSITION": 9
          },
          "indices": 11,
          "material": 0,
          "mode": 4
        }
      ]
    }
  ],
  "nodes": [
    {
      "children": [
        1
      ],
      "matrix": [
        0.3172270357608795,
        0.0,
        0.0,
        0.0,
        0.0,
        7.043855182706327e-17,
        -0.3172270357608795,
        0.0,
        0.0,
        0.3172270357608795,
        7.043855182706327e-17,
        0.0,
        0.0,
        0.0,
        0.0,
        1.0
      ],
      "name": "Sketchfab_model"
    },
    {
      "children": [
        2,
        3,
        4,
        5
      ],
      "name": "Shiv ji.obj.cleaner.materialmerger.gles"
    },
    {
      "mesh": 0,
      "name": "Object_2"
    },
    {
      "mesh": 1,
      "name": "Object_3"
    },
    {
      "mesh": 2,
      "name": "Object_4"
    },
    {
      "mesh": 3,
      "name": "Object_5"
    }
  ],
  "scene": 0,
  "scenes": [
    {
      "name": "Sketchfab_Scene",
      "nodes": [
        0
      ]
    }
  ]
}
